<?xml version="1.0" encoding="utf-8"?>
<!-- Generator: Adobe Illustrator 25.4.1, SVG Export Plug-In . SVG Version: 6.00 Build 0)  -->
<svg version="1.1" id="Layer_1" xmlns="http://www.w3.org/2000/svg" xmlns:xlink="http://www.w3.org/1999/xlink" x="0px" y="0px"
	 viewBox="0 0 32 32" style="enable-background:new 0 0 32 32;" xml:space="preserve">
<style type="text/css">
	.st0{fill:#023047;}
</style>
<g>
	<path class="st0" d="M13.4,13.6l-1.5,5c-0.2,0.4,0,0.9,0.3,1.2c0.2,0.2,0.6,0.3,0.9,0.3c0.1,0,0.2,0,0.3-0.1l5-1.5
		c0.2-0.1,0.4-0.2,0.5-0.3l9.2-9.1c0.2-0.2,0.3-0.6,0.3-0.9c0-0.3-0.2-0.6-0.3-0.9l-3.5-3.5c-0.5-0.5-1.2-0.5-1.7,0L13.7,13
		C13.6,13.2,13.5,13.3,13.4,13.6z M15.7,14.5l8.1-8.1l1.8,1.8l-8.1,8.1l-2.6,0.8L15.7,14.5z"/>
	<path class="st0" d="M27.3,14.8c-0.6,0-1.2,0.6-1.2,1.2V24c0,1.1-0.9,2-2,2H7.9c-1.1,0-2-0.9-2-2V7.9c0-1.1,0.9-2,2-2H16
		c0.6,0,1.2-0.6,1.2-1.2S16.6,3.5,16,3.5H7.9c-2.4,0-4.4,2-4.4,4.4V24c0,2.4,2,4.4,4.4,4.4h16.1c2.4,0,4.4-2,4.4-4.4V16
		C28.5,15.4,27.9,14.8,27.3,14.8z"/>
</g>
</svg>
