<?xml version="1.0" encoding="utf-8"?>
<!-- Generator: Adobe Illustrator 25.4.1, SVG Export Plug-In . SVG Version: 6.00 Build 0)  -->
<svg version="1.1" id="Layer_1" xmlns="http://www.w3.org/2000/svg" xmlns:xlink="http://www.w3.org/1999/xlink" x="0px" y="0px"
	 viewBox="0 0 32 32" style="enable-background:new 0 0 32 32;" xml:space="preserve">
<style type="text/css">
	.st0{fill:#023047;}
</style>
<path class="st0" d="M24.2,12.2l-0.4,12.1c-0.1,2.2-1.8,3.9-4,3.9h-7.6c-2.2,0-3.9-1.7-4-3.9L7.8,12.2c0-0.6,0.4-1,1-1s1,0.4,1,1
	l0.4,12.1c0,1.1,0.9,1.9,2,1.9h7.6c1.1,0,2-0.9,2-1.9l0.4-12.1c0-0.6,0.5-1,1-1C23.8,11.2,24.2,11.6,24.2,12.2z M25.5,8.2
	c0,0.6-0.4,1-1,1h-17c-0.6,0-1-0.4-1-1s0.4-1,1-1h3.1c0.7,0,1.2-0.5,1.3-1.1c0.2-1.5,1.4-2.7,3-2.7h2.3c1.5,0,2.8,1.2,3,2.7
	c0.1,0.7,0.6,1.1,1.3,1.1h3.1C25.1,7.2,25.5,7.6,25.5,8.2L25.5,8.2z M13.6,7.2h4.8c-0.1-0.3-0.2-0.6-0.3-0.9c-0.1-0.5-0.5-0.9-1-0.9
	h-2.3c-0.5,0-0.9,0.4-1,0.9C13.8,6.5,13.7,6.9,13.6,7.2L13.6,7.2z M14.6,22.3v-8.5c0-0.6-0.4-1-1-1s-1,0.4-1,1v8.5c0,0.6,0.4,1,1,1
	S14.6,22.9,14.6,22.3L14.6,22.3z M19.4,22.3v-8.5c0-0.6-0.4-1-1-1s-1,0.4-1,1v8.5c0,0.6,0.4,1,1,1S19.4,22.9,19.4,22.3L19.4,22.3z"
	/>
</svg>
