<?xml version="1.0" encoding="utf-8"?>
<!-- Generator: Adobe Illustrator 25.4.1, SVG Export Plug-In . SVG Version: 6.00 Build 0)  -->
<svg version="1.1" id="Layer_1" xmlns="http://www.w3.org/2000/svg" xmlns:xlink="http://www.w3.org/1999/xlink" x="0px" y="0px"
	 viewBox="0 0 32 32" style="enable-background:new 0 0 32 32;" xml:space="preserve">
<style type="text/css">
	.st0{fill:#023047;}
</style>
<path class="st0" d="M12.8,13L11,19.2c-0.2,0.5,0,1.1,0.4,1.5c0.3,0.3,0.7,0.4,1.1,0.4c0.1,0,0.3,0,0.4-0.1l6.2-1.9
	c0.2-0.1,0.5-0.2,0.6-0.4L31.1,7.4c0.3-0.3,0.4-0.7,0.4-1.1s-0.2-0.8-0.4-1.1l-4.4-4.3c-0.6-0.6-1.5-0.6-2.1,0L13.2,12.3
	C13,12.5,12.9,12.7,12.8,13z M15.6,14.2L25.6,4.1l2.2,2.2L17.8,16.4l-3.2,1L15.6,14.2z"/>
<path class="st0" d="M30,14.5c-0.8,0-1.5,0.7-1.5,1.5v10c0,1.4-1.1,2.5-2.5,2.5H6c-1.4,0-2.5-1.1-2.5-2.5V6c0-1.4,1.1-2.5,2.5-2.5
	h10c0.8,0,1.5-0.7,1.5-1.5S16.8,0.5,16,0.5H6C3,0.5,0.5,3,0.5,6v20c0,3,2.5,5.5,5.5,5.5h20c3,0,5.5-2.5,5.5-5.5V16
	C31.5,15.2,30.8,14.5,30,14.5z"/>
</svg>
